<?xml version="1.0" standalone="no"?>
<!DOCTYPE svg PUBLIC "-//W3C//DTD SVG 1.1//EN" "http://www.w3.org/Graphics/SVG/1.1/DTD/svg11.dtd" >
<svg xmlns="http://www.w3.org/2000/svg" xmlns:xlink="http://www.w3.org/1999/xlink" version="1.1">
<metadata></metadata>
<defs>
<font id="sailecmedium" horiz-adv-x="561" >
<font-face units-per-em="2048" ascent="1638" descent="-410" />
<missing-glyph horiz-adv-x="477" />
<glyph unicode="&#xfb01;" horiz-adv-x="1296" d="M18 852v199h199v145q0 188 108.5 297t292.5 109q49 0 91 -7v-198q-37 4 -66 4q-88 0 -142.5 -53.5t-54.5 -145.5v-151h259v-199h-259v-852h-229v852h-199zM872 1415.5q0 59.5 42 101.5t101.5 42t102.5 -42t43 -101.5t-43 -101.5t-102.5 -42t-101.5 42t-42 101.5zM901 0 v1051h229v-1051h-229z" />
<glyph horiz-adv-x="0" />
<glyph horiz-adv-x="682" />
<glyph unicode="&#xd;" horiz-adv-x="681" />
<glyph unicode=" "  horiz-adv-x="477" />
<glyph unicode="&#x09;" horiz-adv-x="477" />
<glyph unicode="&#xa0;" horiz-adv-x="477" />
<glyph unicode="!" horiz-adv-x="612" d="M158 125q0 63 43 106t102 43q61 0 105.5 -43t44.5 -106q0 -59 -44 -102t-106 -43q-59 0 -102 43t-43 102zM170 1532h268l-12 -1094h-244z" />
<glyph unicode="&#x22;" horiz-adv-x="757" d="M88 1532h229l-24 -518h-180zM438 1532h230l-25 -518h-180z" />
<glyph unicode="#" horiz-adv-x="1331" d="M14 397l43 185h230l86 362h-238l45 184h236l98 404h201l-97 -404h265l98 404h201l-97 -404h232l-45 -184h-232l-86 -362h240l-43 -185h-240l-94 -397h-203l97 397h-267l-94 -397h-203l95 397h-228zM487 582h267l86 362h-267z" />
<glyph unicode="$" horiz-adv-x="1349" d="M104 444l248 15q8 -121 105.5 -195t242.5 -74q139 0 222.5 55.5t83.5 170.5q0 106 -83 154t-284 96q-121 31 -196.5 57.5t-152.5 75.5t-114 123.5t-37 181.5q0 176 116 300t335 144v224h192v-228q193 -27 309.5 -141.5t122.5 -294.5l-247 -14q-6 115 -85 181t-208 66 q-135 0 -210 -63.5t-75 -165.5q0 -106 75 -150t265 -90q270 -66 397 -159t127 -281q0 -205 -130 -317.5t-341 -130.5v-226h-192v228q-215 25 -347 145.5t-139 312.5z" />
<glyph unicode="%" horiz-adv-x="1767" d="M72 1180q0 170 97 271t249 101q154 0 250 -101t96 -271q0 -168 -97.5 -271.5t-249 -103.5t-248.5 103.5t-97 271.5zM242 1179.5q0 -98.5 49 -155.5t127 -57t127 56t49 157q0 98 -48 154.5t-128 56.5q-78 0 -127 -56.5t-49 -155zM246 0l1050 1532h224l-1051 -1532h-223z M1001 354q0 170 97.5 271.5t249.5 101.5q154 0 250 -101.5t96 -271.5q0 -168 -97.5 -271t-249 -103t-249 103t-97.5 271zM1171 354.5q0 -98.5 49.5 -156t127.5 -57.5q80 0 128 56.5t48 156.5q0 98 -48.5 154.5t-128 56.5t-128 -56t-48.5 -154.5z" />
<glyph unicode="&#x26;" horiz-adv-x="1447" d="M84 416q0 141 65.5 242.5t188.5 187.5q-127 150 -127 303q0 195 121 299t321 104q176 0 296 -97t145 -267l-236 -19q-27 174 -205 174q-92 0 -145 -49t-53 -143q0 -20 3 -39.5t12 -39t16.5 -34t24.5 -35t25.5 -30.5t33 -32.5t33.5 -30t38 -33t37 -31.5l358 -309 q55 119 99 288l215 -57q-59 -215 -146 -379l264 -227l-147 -182l-248 215q-193 -213 -471 -213q-248 0 -383 121.5t-135 312.5zM332 438q0 -115 73.5 -182.5t200.5 -67.5q176 0 305 148l-407 352l-27 25q-145 -109 -145 -275z" />
<glyph unicode="'" horiz-adv-x="407" d="M88 1532h229l-24 -518h-180z" />
<glyph unicode="(" d="M80 655q0 473 246 842l198 -70q-215 -356 -215 -772q0 -414 215 -770l-198 -71q-246 373 -246 841z" />
<glyph unicode=")" d="M39 -115q215 356 215 770q0 416 -215 772l199 70q246 -369 245 -842q0 -469 -245 -841z" />
<glyph unicode="*" horiz-adv-x="714" d="M18 1264l41 122l238 -81l-4 251h129l-4 -251l237 81l41 -122l-239 -76l151 -199l-106 -78l-144 205l-145 -207l-104 80l149 199z" />
<glyph unicode="+" horiz-adv-x="1120" d="M66 653v209h383v385h223v-385h383v-209h-383v-393h-223v393h-383z" />
<glyph unicode="," horiz-adv-x="452" d="M86 125q0 61 40 104t101 43q66 0 102 -45t36 -118q0 -281 -267 -424v98q104 76 127 199q-59 4 -99 45t-40 98z" />
<glyph unicode="-" horiz-adv-x="827" d="M92 428v215h643v-215h-643z" />
<glyph unicode="." horiz-adv-x="464" d="M86 125q0 63 43 106t102 43q61 0 105.5 -43t44.5 -106q0 -59 -44 -102t-106 -43q-59 0 -102 43t-43 102z" />
<glyph unicode="/" horiz-adv-x="798" d="M18 -137l523 1669h239l-520 -1669h-242z" />
<glyph unicode="0" horiz-adv-x="1325" d="M98 766q0 375 154 580.5t412 205.5t410.5 -205.5t152.5 -580.5q0 -373 -153.5 -579.5t-409.5 -206.5q-258 0 -412 206.5t-154 579.5zM346.5 766q-0.5 -569 317.5 -569q315 0 315 569t-315 569q-317 0 -317.5 -569z" />
<glyph unicode="1" horiz-adv-x="780" d="M14 1231l414 301h178v-1532h-241v1210l-234 -172z" />
<glyph unicode="2" horiz-adv-x="1103" d="M104 1083q4 221 125 345t336 124t334 -113.5t119 -318.5q0 -174 -75 -310t-214 -288l-285 -305h588v-217h-923v201l440 471q131 139 178 225t47 213q0 104 -53 164.5t-150 60.5q-219 0 -223 -266z" />
<glyph unicode="3" horiz-adv-x="1150" d="M80 436l244 15q20 -254 247 -254q115 0 178.5 65.5t63.5 183.5q0 117 -69.5 176.5t-188.5 59.5h-154v217h150q100 0 164.5 59.5t64.5 161.5q0 104 -55 159.5t-156 55.5q-102 0 -160.5 -62.5t-64.5 -174.5l-242 12q6 207 128 324.5t339 117.5q213 0 335 -116.5t122 -315.5 q0 -233 -203 -327q102 -29 169 -122t67 -229q0 -215 -133 -338.5t-353 -123.5q-229 0 -356 120.5t-137 335.5z" />
<glyph unicode="4" horiz-adv-x="1226" d="M55 322v200l678 1010h205v-993h240v-217h-240v-322h-240v322h-643zM324 539h372v553z" />
<glyph unicode="5" horiz-adv-x="1155" d="M84 420l244 14q20 -238 243 -237q119 0 184.5 75.5t65.5 198.5t-65.5 194.5t-177.5 71.5q-119 0 -216 -73h-225v868h869v-215h-627v-418q94 55 223 55q205 0 334 -127t129 -350q0 -225 -133 -361t-363 -136q-221 0 -348 117.5t-137 322.5z" />
<glyph unicode="6" horiz-adv-x="1226" d="M90 483q0 172 109 324l528 725h291l-395 -539q225 -4 371.5 -144t146.5 -366q0 -227 -148.5 -365t-376.5 -138q-229 0 -377.5 138t-148.5 365zM338 492q0 -135 76.5 -215t201.5 -80q123 0 201 79.5t78 215t-77 212t-202 76.5q-147 0 -221 -98q-57 -76 -57 -190z" />
<glyph unicode="7" horiz-adv-x="1105" d="M43 1317v215h1008v-197l-666 -1335h-268l665 1317h-739z" />
<glyph unicode="8" horiz-adv-x="1241" d="M106 440q0 129 60.5 224.5t165.5 146.5q-188 98 -189 322q0 195 133.5 307t342 112t343 -112.5t134.5 -306.5q0 -219 -189 -320q104 -51 166 -147.5t62 -225.5q0 -211 -144.5 -335.5t-370 -124.5t-370 124.5t-144.5 335.5zM348 446q0 -115 77 -182t193 -67 q119 0 196 67.5t77 181.5q0 117 -76 183.5t-197 66.5q-117 0 -193.5 -66.5t-76.5 -183.5zM387 1120q0 -98 66.5 -154.5t167.5 -56.5q102 0 167.5 56.5t65.5 154.5q0 100 -65.5 157.5t-168 57.5t-168 -57t-65.5 -158z" />
<glyph unicode="9" horiz-adv-x="1226" d="M86 1049q0 227 148.5 365t375.5 138q229 0 378 -138t149 -365q0 -172 -109 -324l-528 -725h-291l395 539q-225 4 -371.5 144t-146.5 366zM332 1040.5q0 -135.5 77.5 -212t200.5 -76.5q147 0 221 98q57 76 58 190q0 135 -77 215t-202 80q-123 0 -200.5 -79.5t-77.5 -215z " />
<glyph unicode=":" horiz-adv-x="464" d="M74 125q0 63 43 106t102 43q61 0 105.5 -43t44.5 -106q0 -59 -44 -102t-106 -43q-59 0 -102 43t-43 102zM74 922q0 63 43 106t102 43q61 0 105.5 -43t44.5 -106q0 -59 -44 -102.5t-106 -43.5q-59 0 -102 43t-43 103z" />
<glyph unicode=";" horiz-adv-x="464" d="M74 922q0 63 43 106t102 43q61 0 105.5 -43t44.5 -106q0 -59 -44.5 -102.5t-105.5 -43.5q-59 0 -102 43t-43 103zM86 125q0 61 40 104t101 43q66 0 102 -45t36 -118q0 -281 -267 -424v98q104 76 127 199q-59 4 -99 45t-40 98z" />
<glyph unicode="&#x3c;" horiz-adv-x="1079" d="M57 756l955 506l2 -261l-504 -245l504 -246l-2 -260z" />
<glyph unicode="=" horiz-adv-x="1120" d="M66 399v217h989v-217h-989zM66 895v217h989v-217h-989z" />
<glyph unicode="&#x3e;" horiz-adv-x="1079" d="M66 510l503 246l-503 245l2 261l954 -506l-954 -506z" />
<glyph unicode="?" horiz-adv-x="1056" d="M35 1118q10 201 144 318.5t351 117.5q227 0 358.5 -123.5t131.5 -326.5q0 -121 -53.5 -197t-157.5 -155q-86 -66 -124 -121.5t-38 -132.5v-60h-244v70q0 96 48.5 170t148.5 156q86 68 128 126t42 140q0 109 -63.5 174t-176 65t-177 -62.5t-74.5 -174.5zM377 125 q0 63 43 106t102 43q61 0 105.5 -43t44.5 -106q0 -59 -44 -102t-106 -43q-59 0 -102 43t-43 102z" />
<glyph unicode="@" horiz-adv-x="1662" d="M84 504q0 322 210.5 532.5t536.5 210.5q324 0 536 -211t212 -532q0 -205 -84 -312.5t-231 -107.5q-154 0 -199 113q-96 -119 -277 -119q-174 0 -280.5 116.5t-106.5 311.5q0 197 106.5 313.5t280.5 116.5q190 0 265 -113v86h168v-577q0 -100 86 -101q59 0 96 72t37 201 q0 262 -174 436t-435 174q-264 0 -436 -174t-172 -436q0 -268 174 -437t424 -169q215 0 375 96l37 -129q-170 -102 -412 -103q-313 0 -525 208t-212 534zM582 506q0 -129 64.5 -201t170.5 -72q104 0 165.5 65.5t61.5 186.5v43q0 121 -61 185.5t-166 64.5 q-106 0 -170.5 -71.5t-64.5 -200.5z" />
<glyph unicode="A" horiz-adv-x="1554" d="M25 0l647 1532h207l649 -1532h-268l-142 342h-684l-143 -342h-266zM528 559h498l-248 596z" />
<glyph unicode="B" horiz-adv-x="1423" d="M172 0v1532h602q209 0 337 -106.5t128 -309.5q0 -231 -172 -315q106 -35 172 -129t66 -238q0 -211 -133.5 -322.5t-348.5 -111.5h-651zM414 217h381q117 0 188.5 56.5t71.5 172.5q0 119 -71 176.5t-179 57.5h-391v-463zM414 889h366q211 0 211 211q0 106 -66.5 161.5 t-179.5 55.5h-331v-428z" />
<glyph unicode="C" horiz-adv-x="1671" d="M109 765.5q0 364.5 212.5 575.5t550.5 211q279 0 476.5 -155.5t234.5 -417.5l-254 -23q-31 180 -155.5 279.5t-309.5 99.5q-229 0 -368.5 -153.5t-139.5 -415.5q0 -268 143.5 -418.5t366.5 -150.5q182 0 306 95t157 269l256 -22q-43 -258 -238.5 -408.5t-472.5 -150.5 q-336 0 -550.5 210.5t-214.5 575z" />
<glyph unicode="D" horiz-adv-x="1640" d="M172 0v1532h612q330 0 539 -206t209 -560t-211 -560t-541 -206h-608zM414 209h368q229 0 367.5 144.5t138.5 412.5t-137 412.5t-367 144.5h-370v-1114z" />
<glyph unicode="E" horiz-adv-x="1222" d="M172 0v1532h963v-215h-719v-422h628v-211h-628v-467h719v-217h-963z" />
<glyph unicode="F" horiz-adv-x="1198" d="M172 0v1532h963v-215h-719v-428h594v-215h-594v-674h-244z" />
<glyph unicode="G" horiz-adv-x="1693" d="M109 766q0 365 211.5 575.5t547.5 210.5q268 0 461 -142t244 -392l-252 -41q-31 168 -151.5 263t-303.5 95q-233 0 -371.5 -146.5t-138.5 -422.5q0 -274 139.5 -421.5t370.5 -147.5q186 0 307 97t150 294h-453v215h717v-80q0 -340 -193.5 -541.5t-523.5 -201.5 q-334 0 -547.5 211.5t-213.5 574.5z" />
<glyph unicode="H" horiz-adv-x="1550" d="M172 0v1532h244v-633h721v633h243v-1532h-243v682h-721v-682h-244z" />
<glyph unicode="I" horiz-adv-x="585" d="M172 0v1532h244v-1532h-244z" />
<glyph unicode="J" horiz-adv-x="1216" d="M43 473l244 39q8 -150 77.5 -232.5t190.5 -82.5q125 0 191.5 78.5t66.5 230.5v1026h244v-1020q0 -252 -134.5 -392t-369.5 -140q-225 0 -361.5 131t-148.5 362z" />
<glyph unicode="K" horiz-adv-x="1423" d="M172 0v1532h244v-686l596 686h313l-559 -643l637 -889h-299l-502 696l-186 -215v-481h-244z" />
<glyph unicode="L" horiz-adv-x="1210" d="M172 0v1532h244v-1315h725v-217h-969z" />
<glyph unicode="M" horiz-adv-x="2002" d="M172 0v1532h215l617 -1163l614 1163h213v-1532h-242v985l-506 -973h-159l-508 973v-985h-244z" />
<glyph unicode="N" horiz-adv-x="1548" d="M172 0v1532h205l758 -1083v1083h243v-1532h-207l-755 1081v-1081h-244z" />
<glyph unicode="O" horiz-adv-x="1781" d="M109 766q0 358 220 572t562 214q340 0 560 -214t220 -572t-220 -572t-560 -214q-342 0 -562 214t-220 572zM356 766q0 -262 149.5 -415.5t385.5 -153.5q233 0 382.5 153.5t149.5 415.5q0 264 -149.5 416.5t-382.5 152.5q-236 0 -385.5 -152.5t-149.5 -416.5z" />
<glyph unicode="P" horiz-adv-x="1345" d="M172 0v1532h627q215 0 348 -125t133 -352q0 -225 -134 -351t-347 -126h-383v-578h-244zM414 795h354q115 0 188.5 67.5t73.5 192.5q0 127 -73.5 194.5t-188.5 67.5h-354v-522z" />
<glyph unicode="Q" horiz-adv-x="1787" d="M109 766q0 358 220 572t562 214q340 0 560 -214t220 -572q0 -299 -160 -504l248 -246l-170 -174l-258 256q-188 -118 -436 -118h-4q-342 0 -562 214t-220 572zM356 766q0 -262 149.5 -415.5t385.5 -153.5q150 0 272 67l-272 273l170 172l276 -275q86 137 86 332 q0 264 -149.5 416.5t-382.5 152.5q-236 0 -385.5 -152.5t-149.5 -416.5z" />
<glyph unicode="R" horiz-adv-x="1423" d="M172 0v1532h619q215 0 348 -124t133 -349q0 -162 -71 -271.5t-193 -160.5l344 -627h-275l-323 586h-338v-586h-244zM414 803h346q115 0 188.5 66.5t73.5 189.5q0 125 -74 191.5t-188 66.5h-346v-514z" />
<glyph unicode="S" horiz-adv-x="1349" d="M104 444l248 15q8 -121 105.5 -195t242.5 -74q139 0 222.5 55.5t83.5 170.5q0 106 -83 154t-284 96q-121 31 -196.5 57.5t-152.5 75.5t-114 123.5t-37 181.5q0 193 137.5 320.5t393.5 127.5q240 0 388 -118.5t156 -325.5l-247 -14q-6 115 -85 181t-208 66 q-135 0 -210 -63.5t-75 -165.5q0 -106 75 -150t265 -90q270 -66 397 -158.5t127 -281.5q0 -225 -154.5 -338.5t-398.5 -113.5q-258 0 -422.5 122.5t-173.5 341.5z" />
<glyph unicode="T" horiz-adv-x="1406" d="M37 1317v215h1333v-215h-545v-1317h-243v1317h-545z" />
<glyph unicode="U" horiz-adv-x="1576" d="M160 596v936h243v-932q0 -199 99.5 -301t285.5 -102q184 0 285 103t101 300v932h243v-936q0 -293 -168 -454.5t-460.5 -161.5t-460.5 161.5t-168 454.5z" />
<glyph unicode="V" horiz-adv-x="1560" d="M35 1532h266l479 -1151l480 1151h268l-645 -1532h-205z" />
<glyph unicode="W" horiz-adv-x="2295" d="M35 1532h262l379 -1100l373 1100h200l375 -1100l377 1100h262l-534 -1532h-205l-375 1083l-373 -1083h-207z" />
<glyph unicode="X" horiz-adv-x="1447" d="M45 0l500 778l-475 754h280l375 -590l373 590h280l-475 -754l500 -778h-283l-395 616l-397 -616h-283z" />
<glyph unicode="Y" horiz-adv-x="1464" d="M31 1532h282l420 -674l418 674h283l-580 -916v-616h-242v616z" />
<glyph unicode="Z" horiz-adv-x="1271" d="M74 0v184l794 1133h-774v215h1088v-184l-797 -1131h815v-217h-1126z" />
<glyph unicode="[" horiz-adv-x="579" d="M115 -158v1628h422v-192h-193v-1243h193v-193h-422z" />
<glyph unicode="\" horiz-adv-x="798" d="M18 1532h240l522 -1669h-239z" />
<glyph unicode="]" horiz-adv-x="579" d="M45 35h193v1243h-193v192h422v-1628h-422v193z" />
<glyph unicode="^" horiz-adv-x="1173" d="M59 764l529 801l526 -801h-260l-266 440l-269 -440h-260z" />
<glyph unicode="_" horiz-adv-x="1404" d="M92 0h1221v-217h-1221v217z" />
<glyph unicode="`" horiz-adv-x="512" d="M29 1612h262l192 -391h-180z" />
<glyph unicode="a" horiz-adv-x="1122" d="M100 287q0 295 385 317l250 14v31q0 219 -186 219q-92 0 -140.5 -51t-48.5 -127l-231 8q0 147 115 259t303 112q203 0 311.5 -107.5t108.5 -308.5v-653h-232v94q-120 -114 -281 -114h-3q-160 0 -255.5 80.5t-95.5 226.5zM332 291q0 -119 157 -119q115 0 181.5 58.5 t66.5 172.5v37l-219 -14q-186 -10 -186 -135z" />
<glyph unicode="b" horiz-adv-x="1335" d="M166 0v1591h229v-667q45 66 133 105.5t201 39.5q223 0 364.5 -148.5t141.5 -396.5t-141.5 -396t-364.5 -148q-119 0 -210 46t-136 119v-145h-217zM395 498q0 -152 82 -236t215 -84q137 0 223 91t86 255t-86 256t-223 92q-133 0 -215 -83.5t-82 -235.5v-55z" />
<glyph unicode="c" horiz-adv-x="1196" d="M100 524q0 254 147 399.5t380 145.5q193 0 324.5 -106.5t158.5 -290.5l-225 -21q-12 102 -83 161.5t-175 59.5q-131 0 -212 -92t-81 -256q0 -162 82 -254t211 -92q106 0 174.5 55.5t85.5 153.5l225 -20q-31 -178 -162 -282.5t-323 -104.5q-231 0 -379 146t-148 398z" />
<glyph unicode="d" horiz-adv-x="1335" d="M100 524q0 248 141.5 396.5t364.5 148.5q113 0 201 -40t133 -105v667h229v-1591h-217v145q-45 -74 -136 -119.5t-210 -45.5q-223 0 -364.5 148t-141.5 396zM334 524q0 -164 86 -255t223 -91q133 0 215 84t82 236v55q0 152 -82 235.5t-215 83.5q-137 0 -223 -92t-86 -256z " />
<glyph unicode="e" horiz-adv-x="1216" d="M100 524q0 252 145.5 398.5t379.5 146.5q225 0 358 -139t133 -379v-113h-772q8 -119 84 -189.5t197 -70.5q205 0 249 150l232 -13q-31 -143 -164 -239t-311 -96q-236 0 -383.5 146t-147.5 398zM346 618h539q-4 117 -70.5 185.5t-191.5 68.5q-117 0 -193 -66.5t-84 -187.5 z" />
<glyph unicode="f" horiz-adv-x="735" d="M18 852v199h199v145q0 188 108.5 297t292.5 109q49 0 91 -7v-198q-37 4 -66 4q-88 0 -142.5 -53.5t-54.5 -145.5v-151h259v-199h-259v-852h-229v852h-199z" />
<glyph unicode="g" horiz-adv-x="1323" d="M100 524q0 248 141.5 396.5t364.5 148.5q119 0 210 -46t136 -120v148h217v-1102q0 -225 -140 -357.5t-376 -132.5q-225 0 -357 103.5t-165 281.5l229 9q14 -92 92 -145.5t195 -53.5q133 0 213 72.5t80 205.5v193q-45 -66 -133 -105.5t-201 -39.5q-223 0 -364.5 148 t-141.5 396zM334 524q0 -164 86 -256t223 -92q133 0 215 84t82 236v55q0 152 -82 235.5t-215 83.5q-137 0 -223 -91t-86 -255z" />
<glyph unicode="h" horiz-adv-x="1247" d="M166 0v1591h229v-659q92 137 295 137q182 0 296 -117.5t114 -318.5v-633h-232v602q0 117 -62.5 185.5t-166.5 68.5q-109 0 -176.5 -72.5t-67.5 -183.5v-600h-229z" />
<glyph unicode="i" d="M137 1415.5q0 59.5 42 101.5t101.5 42t102.5 -42t43 -101.5t-43 -101.5t-102.5 -42t-101.5 42t-42 101.5zM166 0v1051h229v-1051h-229z" />
<glyph unicode="j" d="M-86 -328q27 -6 66 -6q86 0 137 52.5t51 144.5v1188h229v-1182q0 -188 -105.5 -296t-285.5 -108q-49 0 -92 7v200zM137 1415.5q0 59.5 42 101.5t101.5 42t102.5 -42t43 -101.5t-43 -101.5t-102.5 -42t-101.5 42t-42 101.5z" />
<glyph unicode="k" horiz-adv-x="1140" d="M166 0v1591h229v-962l408 422h280l-421 -453l464 -598h-290l-336 426l-105 -107v-319h-229z" />
<glyph unicode="l" d="M166 0v1591h229v-1591h-229z" />
<glyph unicode="m" horiz-adv-x="1910" d="M166 0v1051h217v-140q90 158 303 158q229 0 334 -190q109 190 342 190q176 0 284.5 -119t108.5 -313v-637h-231v602q0 119 -57.5 186.5t-161.5 67.5q-96 0 -157 -60.5t-71 -156.5v-6v-633h-231v602q0 117 -58.5 185.5t-152.5 68.5q-106 0 -173 -72.5t-67 -183.5v-600 h-229z" />
<glyph unicode="n" horiz-adv-x="1255" d="M166 0v1051h217v-140q90 158 307 158q182 0 296 -117.5t114 -318.5v-633h-232v602q0 117 -62.5 185.5t-166.5 68.5q-109 0 -176.5 -72.5t-67.5 -183.5v-600h-229z" />
<glyph unicode="o" horiz-adv-x="1298" d="M100 524.5q0 245.5 154.5 395t394.5 149.5q238 0 392.5 -149.5t154.5 -395t-154.5 -395t-392.5 -149.5q-240 0 -394.5 149.5t-154.5 395zM334 524q0 -160 88 -253t227 -93t227.5 93.5t88.5 252.5q0 162 -88.5 255t-227.5 93t-227 -93t-88 -255z" />
<glyph unicode="p" horiz-adv-x="1335" d="M166 -522v1573h217v-148q45 74 136 120t210 46q223 0 364.5 -148.5t141.5 -396.5t-141.5 -396t-364.5 -148q-113 0 -201 39.5t-133 105.5v-647h-229zM395 496q0 -152 82 -236t215 -84q137 0 223 92t86 256t-86 255t-223 91q-133 0 -215 -84t-82 -235v-55z" />
<glyph unicode="q" horiz-adv-x="1335" d="M100 524q0 248 141.5 396.5t364.5 148.5q119 0 210 -46t136 -120v148h217v-1573h-229v647q-45 -66 -133 -105.5t-201 -39.5q-223 0 -364.5 148t-141.5 396zM334 524q0 -164 86 -256t223 -92q133 0 215 84t82 236v55q0 152 -82 235.5t-215 83.5q-137 0 -223 -91t-86 -255z " />
<glyph unicode="r" horiz-adv-x="731" d="M166 0v1051h223v-148q76 160 299 160v-223q-133 0 -213 -76t-80 -193v-571h-229z" />
<glyph unicode="s" horiz-adv-x="1028" d="M84 315l229 15q18 -152 205 -152q80 0 129 31t49 88q0 61 -45 88t-182 59q-96 23 -149.5 41.5t-109.5 52t-81 86t-25 128.5q0 143 106 230t294 87q180 0 283.5 -93t119.5 -241l-229 -12q-14 149 -178 149h-2q-164 0 -164 -116q0 -14 3 -26.5t10 -23t14.5 -17.5t22.5 -14 t25.5 -11.5t33 -10.5t36 -9t41 -9t43.5 -10q184 -47 273.5 -113t89.5 -197q0 -158 -109.5 -246.5t-302.5 -88.5q-186 0 -299 89t-131 246z" />
<glyph unicode="t" horiz-adv-x="774" d="M25 852v199h194l2 356h232l-2 -356h266v-199h-268l-3 -481q1 -181 175 -181q37 0 98 11v-205q-78 -12 -154 -12q-162 0 -256 84q-92 82 -92 249v7l2 528h-194z" />
<glyph unicode="u" horiz-adv-x="1220" d="M156 403v648h229v-613q0 -115 55.5 -179t157.5 -64q104 0 165.5 74.5t61.5 181.5v600h230v-1051h-217v137q-33 -66 -109 -111.5t-188 -45.5q-176 0 -280.5 115.5t-104.5 307.5z" />
<glyph unicode="v" horiz-adv-x="1124" d="M16 1051h252l295 -703l291 703h254l-453 -1051h-184z" />
<glyph unicode="w" horiz-adv-x="1703" d="M16 1051h248l252 -676l254 676h162l256 -676l252 676h248l-402 -1051h-184l-250 666l-252 -666h-182z" />
<glyph unicode="x" horiz-adv-x="1089" d="M31 0l340 539l-332 512h272l234 -361l229 361h273l-334 -516l350 -535h-275l-243 377l-246 -377h-268z" />
<glyph unicode="y" horiz-adv-x="1124" d="M25 1051h256l282 -719l283 719h256l-668 -1573h-252l258 596z" />
<glyph unicode="z" horiz-adv-x="923" d="M68 0v152l503 710h-491v189h758v-154l-502 -711h522v-186h-790z" />
<glyph unicode="{" d="M39 561v191h16q96 0 111.5 62.5t-21.5 182.5q-49 229 52.5 351t306.5 122h12v-192h-12q-98 0 -129 -69.5t-2 -231.5q12 -82 14 -149.5t-28.5 -113.5t-100.5 -57q100 -16 121.5 -109t-6.5 -212q-27 -162 3 -231.5t128 -69.5h12v-193h-12q-205 0 -306.5 122t-52.5 351 q37 121 22 183.5t-112 62.5h-16z" />
<glyph unicode="|" horiz-adv-x="550" d="M160 -137v1669h229v-1669h-229z" />
<glyph unicode="}" d="M45 35h12q98 0 128 69.5t3 231.5q-29 119 -7 212t122 109q-70 10 -100.5 56.5t-28.5 114t14 149.5q29 162 -1.5 231.5t-129.5 69.5h-12v192h12q207 0 307.5 -121.5t51.5 -351.5q-35 -121 -20.5 -183t110.5 -62h16v-191h-16q-96 0 -110.5 -62.5t20.5 -183.5 q49 -229 -51.5 -351t-307.5 -122h-12v193z" />
<glyph unicode="~" horiz-adv-x="1103" d="M33 752q137 176 311 176q80 0 192.5 -61.5t194.5 -61.5q78 0 131.5 27t104.5 90l104 -152q-139 -180 -317 -180q-94 0 -207 61.5t-180 61.5q-74 0 -125.5 -25.5t-104.5 -89.5z" />
<glyph unicode="&#xa1;" horiz-adv-x="612" d="M160 899q0 59 44 102t105 43q59 0 102.5 -43t43.5 -102q0 -63 -43.5 -106t-102.5 -43q-61 0 -105 43t-44 106zM174 -508l12 1094h244l12 -1094h-268z" />
<glyph unicode="&#xa2;" horiz-adv-x="1196" d="M100 524q0 223 116 364.5t308 172.5v223h193v-221q158 -25 264 -128.5t129 -262.5l-225 -21q-12 102 -83 161.5t-175 59.5q-131 0 -212 -92t-81 -256q0 -162 82 -254t211 -92q106 0 175 55.5t85 153.5l225 -20q-27 -158 -132.5 -258.5t-262.5 -122.5v-228h-193v230 q-190 31 -307 173t-117 363z" />
<glyph unicode="&#xa3;" horiz-adv-x="1136" d="M57 651v193h187l-15 180q-23 252 83 390t335 138q201 0 307.5 -105.5t110.5 -289.5l-242 -12q0 88 -46 140t-134 52q-209 0 -186 -270l18 -223h334v-193h-317l6 -69q20 -227 -136 -365h723v-217h-1019v199q121 39 168 130t32 257l-6 65h-203z" />
<glyph unicode="&#xa4;" horiz-adv-x="1216" d="M45 66l238 237q-49 98 -50 213q0 121 52 213l-240 240l145 145l238 -237q84 45 180.5 45t179.5 -45l238 237l145 -145l-237 -238q49 -98 49 -215q0 -121 -47 -215l235 -235l-145 -144l-235 234q-78 -43 -183 -43q-98 0 -182 45l-236 -236zM420 516q0 -113 52 -176.5 t136 -63.5q82 0 134.5 65t52.5 175q0 113 -52.5 177.5t-134.5 64.5q-84 0 -136 -64.5t-52 -177.5z" />
<glyph unicode="&#xa5;" horiz-adv-x="1464" d="M31 1532h282l420 -674l418 674h283l-514 -813h217v-144h-283v-163h283v-146h-283v-266h-242v266h-282v146h282v163h-282v144h217z" />
<glyph unicode="&#xa6;" horiz-adv-x="550" d="M160 -137v653h229v-653h-229zM160 879v653h229v-653h-229z" />
<glyph unicode="&#xa7;" horiz-adv-x="1069" d="M86 276l229 11q4 -162 224 -162q96 0 151 37t55 108q0 70 -54 100.5t-193 61.5q-203 43 -305.5 116t-102.5 216t129 235q-106 74 -106 226q0 150 111.5 238.5t295.5 88.5q195 0 307.5 -84t114.5 -231l-229 -8q-2 141 -191 141q-82 0 -131 -35t-49 -104q0 -63 49 -92 t176 -56q207 -43 307.5 -116.5t100.5 -214.5q0 -146 -123 -232q123 -78 123 -237q0 -156 -119 -248t-319 -92q-207 0 -329 89t-122 244zM301 774q0 -39 16.5 -64.5t60.5 -45t83 -29.5t123 -27q47 -10 86 -18q92 63 92 151q0 33 -14.5 56.5t-32 38t-61.5 29t-74.5 21.5 t-100.5 21q-57 12 -84 21q-94 -64 -94 -154z" />
<glyph unicode="&#xa8;" horiz-adv-x="671" d="M33 1393q0 53 38 91t93 38q53 0 92 -38t39 -91q0 -55 -38 -92t-93 -37t-93 36.5t-38 92.5zM377 1393q0 53 39 91t92 38q55 0 93 -38t38 -91q0 -55 -38 -92t-93 -37t-93 36.5t-38 92.5z" />
<glyph unicode="&#xa9;" horiz-adv-x="1204" d="M59 1036q0 221 156 370.5t389 149.5q229 0 385 -149.5t156 -370.5t-155.5 -370.5t-385.5 -149.5q-233 0 -389 149.5t-156 370.5zM152 1036.5q0 -190.5 127 -314.5t323 -124q195 0 323 124t128 314q0 188 -128 313.5t-323 125.5q-197 0 -323.5 -124t-126.5 -314.5z M295 1038q0 147 87 233.5t222 86.5q115 0 195 -63.5t94 -170.5l-131 -8q-10 61 -53 95t-107 34q-78 0 -127 -56t-49 -151q0 -96 51 -151.5t127 -55.5q61 0 104.5 33t53.5 90l133 -8q-18 -104 -97 -166.5t-192 -62.5q-135 0 -223 88t-88 233z" />
<glyph unicode="&#xaa;" horiz-adv-x="917" d="M76 918q0 238 350 260l166 10v41q0 68 -36 105.5t-103 37.5q-72 0 -112 -39t-40 -94l-203 6q0 119 97.5 211t257.5 92q346 0 346 -334v-524h-195v82q-80 -98 -250 -98q-129 0 -203.5 63.5t-74.5 180.5zM285 928q0 -92 114 -97q78 -2 136.5 45.5t58.5 137.5v33l-152 -11 q-158 -10 -157 -108z" />
<glyph unicode="&#xab;" horiz-adv-x="1132" d="M31 524l352 463l182 -115l-276 -348l276 -350l-182 -115zM559 524l352 463l183 -115l-277 -348l277 -350l-183 -115z" />
<glyph unicode="&#xac;" horiz-adv-x="1179" d="M74 700v181h1020v-559h-181v378h-839z" />
<glyph unicode="&#xad;" horiz-adv-x="827" d="M92 428v215h643v-215h-643z" />
<glyph unicode="&#xae;" horiz-adv-x="1204" d="M59 1036q0 221 156 370.5t389 149.5q229 0 385 -149.5t156 -370.5t-155.5 -370.5t-385.5 -149.5q-233 0 -389 149.5t-156 370.5zM152 1036.5q0 -190.5 126.5 -314.5t323.5 -124q195 0 323 124t128 314q0 188 -128 313.5t-323 125.5q-197 0 -323.5 -124t-126.5 -314.5z M375 723v627h268q88 0 142.5 -52.5t54.5 -144.5q0 -129 -97 -176l127 -254h-141l-115 231h-112v-231h-127zM502 1059h106q100 0 101 94q0 92 -101 92h-106v-186z" />
<glyph unicode="&#xaf;" horiz-adv-x="622" d="M25 1286v178h571v-178h-571z" />
<glyph unicode="&#xb0;" horiz-adv-x="737" d="M59 1210v45q0 139 84.5 217t225.5 78q139 0 225 -77.5t86 -217.5v-45q0 -137 -86 -216t-225.5 -79t-224.5 79t-85 216zM217 1219q0 -76 41 -119t110.5 -43t110.5 43t41 119v28q0 76 -41 119t-110.5 43t-110.5 -42t-41 -120v-28z" />
<glyph unicode="&#xb1;" horiz-adv-x="1120" d="M66 141v215h989v-215h-989zM66 868v209h383v385h223v-385h383v-209h-383v-393h-223v393h-383z" />
<glyph unicode="&#xb4;" horiz-adv-x="512" d="M29 1221l194 391h260l-274 -391h-180z" />
<glyph unicode="&#xb6;" horiz-adv-x="1404" d="M82 1151q0 184 116.5 282.5t311.5 98.5h856v-172h-141v-1497h-181v1497h-235v-1497h-178v903h-121q-195 0 -311.5 99.5t-116.5 285.5z" />
<glyph unicode="&#xb7;" horiz-adv-x="491" d="M86 629q0 63 43 106t102 43q61 0 105.5 -43t44.5 -106q0 -59 -44 -102.5t-106 -43.5q-59 0 -102 43t-43 103z" />
<glyph unicode="&#xb8;" d="M45 -469l39 139q53 -35 135 -35q51 0 88 19.5t37 62.5q0 86 -139 86q-29 0 -70 -8l66 225h118l-24 -102q98 -12 159.5 -63.5t61.5 -139.5q0 -109 -80 -166t-196 -57q-113 0 -195 39z" />
<glyph unicode="&#xba;" horiz-adv-x="1042" d="M78 1110q0 197 125 317.5t317.5 120.5t317.5 -120.5t125 -317.5t-125 -316.5t-317.5 -119.5t-317.5 119.5t-125 316.5zM287 1110q0 -121 64.5 -190.5t169 -69.5t171 69.5t66.5 190.5t-67 191.5t-171 70.5q-102 0 -167.5 -70.5t-65.5 -191.5z" />
<glyph unicode="&#xbb;" horiz-adv-x="1132" d="M39 174l276 350l-276 348l182 115l352 -463l-352 -465zM565 174l277 350l-277 348l183 115l352 -463l-352 -465z" />
<glyph unicode="&#xbc;" horiz-adv-x="1456" d="M6 1319l264 182h113v-842h-178v609l-123 -92zM59 0l1061 1532h236l-1061 -1532h-236zM776 160v139l361 543h170v-523h112v-159h-112v-160h-179v160h-352zM934 319h196v281z" />
<glyph unicode="&#xbd;" horiz-adv-x="1538" d="M6 1319l264 182h113v-842h-178v609l-123 -92zM59 0l1061 1532h236l-1061 -1532h-236zM942 592q2 123 73.5 192.5t194.5 69.5q133 0 202 -71.5t69 -190.5q0 -143 -142 -299l-127 -135h275v-158h-541v123l264 280q92 96 93 191q0 47 -23 74.5t-66 27.5q-98 0 -98 -114z" />
<glyph unicode="&#xbe;" horiz-adv-x="1630" d="M49 901l178 12q10 -109 101 -108q47 0 73.5 27.5t26.5 76.5q0 102 -111 103h-86v151h84q43 0 73 25.5t30 71t-24.5 70t-65.5 24.5q-88 0 -92 -103l-175 11q2 119 71 184t196 65q125 0 194.5 -64.5t69.5 -178.5q0 -123 -107 -174q53 -18 87 -67.5t34 -121.5 q0 -121 -76.5 -190.5t-201.5 -69.5q-131 0 -203 68.5t-76 187.5zM233 0l1061 1532h236l-1061 -1532h-236zM950 160v139l361 543h170v-523h112v-159h-112v-160h-178v160h-353zM1108 319h197v281z" />
<glyph unicode="&#xbf;" horiz-adv-x="1056" d="M37 -53q0 121 53 196.5t158 155.5q86 66 124 121t38 133v59h243v-69q0 -96 -48 -170t-148 -156q-86 -68 -128 -126t-42 -140q0 -109 63.5 -174.5t176 -65.5t177 62.5t74.5 175.5l244 -17q-10 -201 -144.5 -318.5t-351.5 -117.5q-227 0 -358 124t-131 327zM385 926 q0 59 44 102t106 43q59 0 102 -43t43 -102q0 -63 -43 -106.5t-102 -43.5q-61 0 -105.5 43t-44.5 107z" />
<glyph unicode="&#xc0;" horiz-adv-x="1554" d="M25 0l647 1532h207l649 -1532h-268l-142 342h-684l-143 -342h-266zM272 1929h318l284 -301h-212zM528 559h498l-248 596z" />
<glyph unicode="&#xc1;" horiz-adv-x="1554" d="M25 0l647 1532h207l649 -1532h-268l-142 342h-684l-143 -342h-266zM528 559h498l-248 596zM670 1628l284 301h318l-389 -301h-213z" />
<glyph unicode="&#xc2;" horiz-adv-x="1554" d="M25 0l647 1532h207l649 -1532h-268l-142 342h-684l-143 -342h-266zM426 1628l242 307h221l241 -307h-196l-156 172l-157 -172h-195zM528 559h498l-248 596z" />
<glyph unicode="&#xc3;" horiz-adv-x="1554" d="M25 0l647 1532h207l649 -1532h-268l-142 342h-684l-143 -342h-266zM426 1661q-8 113 48.5 194.5t152.5 81.5q70 0 151.5 -59t124.5 -59q90 0 94 104h131q8 -113 -48 -194.5t-152 -81.5q-70 0 -152 58t-125 58q-92 0 -92 -102h-133zM528 559h498l-248 596z" />
<glyph unicode="&#xc4;" horiz-adv-x="1554" d="M25 0l647 1532h207l649 -1532h-268l-142 342h-684l-143 -342h-266zM477 1788q0 53 38 91t93 38q53 0 92 -38t39 -91q0 -55 -38.5 -93t-92.5 -38q-55 0 -93 38t-38 93zM528 559h498l-248 596zM821 1788q0 53 39 91t92 38q55 0 93 -38t38 -91q0 -55 -37.5 -93t-93.5 -38 q-53 0 -92 38t-39 93z" />
<glyph unicode="&#xc5;" horiz-adv-x="1554" d="M25 0l647 1532h207l649 -1532h-268l-142 342h-684l-143 -342h-266zM528 559h498l-248 596zM555 1833q0 90 64.5 149.5t158.5 59.5q92 0 155.5 -59.5t63.5 -149.5t-63.5 -149.5t-155.5 -59.5q-94 0 -158.5 59.5t-64.5 149.5zM682 1833q0 -41 26.5 -66.5t69.5 -25.5 q41 0 66.5 26.5t25.5 65.5q0 41 -25.5 66.5t-66.5 25.5q-43 0 -69.5 -25.5t-26.5 -66.5z" />
<glyph unicode="&#xc6;" horiz-adv-x="2117" d="M14 0l1026 1532h992v-215h-719v-422h629v-211h-629v-467h719v-217h-963v342h-530l-228 -342h-297zM682 559h387v586z" />
<glyph unicode="&#xc7;" horiz-adv-x="1671" d="M109 766q0 365 213 575.5t550 210.5q279 0 476.5 -155.5t234.5 -417.5l-254 -23q-31 180 -155.5 279.5t-309.5 99.5q-229 0 -368.5 -153.5t-139.5 -415.5q0 -268 143.5 -418.5t366.5 -150.5q182 0 306 95t157 269l256 -22q-43 -248 -223 -396.5t-440 -160.5l-19 -74 q98 -12 159.5 -62.5t61.5 -140.5q0 -109 -79.5 -166t-196.5 -57q-113 0 -195 39l39 139q53 -35 135 -35q51 0 88 19.5t37 62.5q0 86 -139 86q-29 0 -70 -8l58 197q-309 25 -500.5 233.5t-191.5 550.5z" />
<glyph unicode="&#xc8;" horiz-adv-x="1222" d="M156 1929h317l285 -301h-213zM172 0v1532h963v-215h-719v-422h628v-211h-628v-467h719v-217h-963z" />
<glyph unicode="&#xc9;" horiz-adv-x="1222" d="M172 0v1532h963v-215h-719v-422h628v-211h-628v-467h719v-217h-963zM553 1628l285 301h317l-389 -301h-213z" />
<glyph unicode="&#xca;" horiz-adv-x="1222" d="M172 0v1532h963v-215h-719v-422h628v-211h-628v-467h719v-217h-963zM309 1628l242 307h221l242 -307h-197l-155 172l-158 -172h-195z" />
<glyph unicode="&#xcb;" horiz-adv-x="1222" d="M172 0v1532h963v-215h-719v-422h628v-211h-628v-467h719v-217h-963zM360 1788q0 53 38.5 91t93.5 38q53 0 92 -38t39 -91q0 -55 -39 -93t-92 -38q-55 0 -93.5 38t-38.5 93zM705 1788q0 53 39 91t92 38q55 0 93 -38t38 -91q0 -55 -38 -93t-93 -38q-53 0 -92 38t-39 93z " />
<glyph unicode="&#xcc;" horiz-adv-x="585" d="M-205 1929h318l284 -301h-213zM172 0v1532h244v-1532h-244z" />
<glyph unicode="&#xcd;" horiz-adv-x="585" d="M172 0v1532h244v-1532h-244zM193 1628l284 301h318l-389 -301h-213z" />
<glyph unicode="&#xce;" horiz-adv-x="585" d="M-51 1628l241 307h222l241 -307h-196l-156 172l-158 -172h-194zM172 0v1532h244v-1532h-244z" />
<glyph unicode="&#xcf;" horiz-adv-x="585" d="M0 1788q0 53 38 91t93 38q53 0 92 -38t39 -91q0 -55 -39 -93t-92 -38q-55 0 -93 38t-38 93zM172 0v1532h244v-1532h-244zM344 1788q0 53 39 91t92 38q55 0 93 -38t38 -91q0 -55 -38 -93t-93 -38q-53 0 -92 38t-39 93z" />
<glyph unicode="&#xd0;" horiz-adv-x="1636" d="M10 672v186h201v674h612q330 0 539 -206t209 -560t-211 -560t-541 -206h-608v672h-201zM453 209h368q229 0 367.5 144.5t138.5 412.5t-137 412.5t-367 144.5h-370v-465h270v-186h-270v-463z" />
<glyph unicode="&#xd1;" horiz-adv-x="1548" d="M172 0v1532h205l758 -1083v1083h243v-1532h-207l-755 1081v-1081h-244zM414 1661q-8 113 48 194.5t152 81.5q70 0 152 -59t125 -59q90 0 94 104h131q8 -113 -48 -194.5t-153 -81.5q-70 0 -151.5 58t-124.5 58q-92 0 -92 -102h-133z" />
<glyph unicode="&#xd2;" horiz-adv-x="1781" d="M109 766q0 358 220 572t562 214q340 0 560 -214t220 -572t-220 -572t-560 -214q-342 0 -562 214t-220 572zM356 766q0 -262 149.5 -415.5t385.5 -153.5q233 0 382.5 153.5t149.5 415.5q0 264 -149.5 416.5t-382.5 152.5q-236 0 -385.5 -152.5t-149.5 -416.5zM371 1929 h317l285 -301h-213z" />
<glyph unicode="&#xd3;" horiz-adv-x="1781" d="M109 766q0 358 220 572t562 214q340 0 560 -214t220 -572t-220 -572t-560 -214q-342 0 -562 214t-220 572zM356 766q0 -262 149.5 -415.5t385.5 -153.5q233 0 382.5 153.5t149.5 415.5q0 264 -149.5 416.5t-382.5 152.5q-236 0 -385.5 -152.5t-149.5 -416.5zM768 1628 l285 301h317l-389 -301h-213z" />
<glyph unicode="&#xd4;" horiz-adv-x="1781" d="M109 766q0 358 220 572t562 214q340 0 560 -214t220 -572t-220 -572t-560 -214q-342 0 -562 214t-220 572zM356 766q0 -262 149.5 -415.5t385.5 -153.5q233 0 382.5 153.5t149.5 415.5q0 264 -149.5 416.5t-382.5 152.5q-236 0 -385.5 -152.5t-149.5 -416.5zM524 1628 l242 307h221l242 -307h-197l-155 172l-158 -172h-195z" />
<glyph unicode="&#xd5;" horiz-adv-x="1781" d="M109 766q0 358 220 572t562 214q340 0 560 -214t220 -572t-220 -572t-560 -214q-342 0 -562 214t-220 572zM356 766q0 -262 149.5 -415.5t385.5 -153.5q233 0 382.5 153.5t149.5 415.5q0 264 -149.5 416.5t-382.5 152.5q-236 0 -385.5 -152.5t-149.5 -416.5zM524 1661 q-8 113 48.5 194.5t152.5 81.5q70 0 151.5 -59t124.5 -59q90 0 95 104h131q8 -113 -48.5 -194.5t-152.5 -81.5q-70 0 -151.5 58t-124.5 58q-92 0 -93 -102h-133z" />
<glyph unicode="&#xd6;" horiz-adv-x="1781" d="M109 766q0 358 220 572t562 214q340 0 560 -214t220 -572t-220 -572t-560 -214q-342 0 -562 214t-220 572zM356 766q0 -262 149.5 -415.5t385.5 -153.5q233 0 382.5 153.5t149.5 415.5q0 264 -149.5 416.5t-382.5 152.5q-236 0 -385.5 -152.5t-149.5 -416.5zM575 1788 q0 53 38.5 91t93.5 38q53 0 92 -38t39 -91q0 -55 -39 -93t-92 -38q-55 0 -93.5 38t-38.5 93zM920 1788q0 53 39 91t92 38q55 0 93 -38t38 -91q0 -55 -38 -93t-93 -38q-53 0 -92 38t-39 93z" />
<glyph unicode="&#xd7;" horiz-adv-x="1095" d="M96 459l299 299l-297 297l152 153l297 -299l295 295l153 -153l-295 -293l297 -297l-151 -154l-299 297l-299 -299z" />
<glyph unicode="&#xd8;" horiz-adv-x="1753" d="M109 766q0 358 220 572t562 214q219 0 397 -94l123 162l150 -113l-121 -157q231 -221 231 -584q0 -358 -220 -572t-560 -214q-236 0 -420 106l-129 -170l-149 113l131 170q-215 219 -215 567zM356 766q0 -227 115 -375l678 885q-115 59 -258 59q-236 0 -385.5 -152.5 t-149.5 -416.5zM610 268q121 -71 281 -71q233 0 382.5 153.5t149.5 415.5q0 238 -129 393z" />
<glyph unicode="&#xd9;" horiz-adv-x="1576" d="M160 596v936h243v-932q0 -199 99.5 -301t285.5 -102q184 0 285 103t101 300v932h243v-936q0 -293 -168 -454.5t-460.5 -161.5t-460.5 161.5t-168 454.5zM283 1929h317l285 -301h-213z" />
<glyph unicode="&#xda;" horiz-adv-x="1576" d="M160 596v936h243v-932q0 -199 99.5 -301t285.5 -102q184 0 285 103t101 300v932h243v-936q0 -293 -168 -454.5t-460.5 -161.5t-460.5 161.5t-168 454.5zM680 1628l285 301h317l-389 -301h-213z" />
<glyph unicode="&#xdb;" horiz-adv-x="1576" d="M160 596v936h243v-932q0 -199 99.5 -301t285.5 -102q184 0 285 103t101 300v932h243v-936q0 -293 -168 -454.5t-460.5 -161.5t-460.5 161.5t-168 454.5zM436 1628l242 307h221l242 -307h-197l-156 172l-157 -172h-195z" />
<glyph unicode="&#xdc;" horiz-adv-x="1576" d="M160 596v936h243v-932q0 -199 99.5 -301t285.5 -102q184 0 285 103t101 300v932h243v-936q0 -293 -168 -454.5t-460.5 -161.5t-460.5 161.5t-168 454.5zM487 1788q0 53 38 91t93 38q53 0 92.5 -38t39.5 -91q0 -55 -39 -93t-93 -38q-55 0 -93 38t-38 93zM831 1788 q0 53 39.5 91t92.5 38q55 0 93 -38t38 -91q0 -55 -38 -93t-93 -38q-53 0 -92.5 38t-39.5 93z" />
<glyph unicode="&#xdd;" horiz-adv-x="1464" d="M31 1532h282l420 -674l418 674h283l-580 -916v-616h-242v616zM625 1628l284 301h318l-389 -301h-213z" />
<glyph unicode="&#xde;" horiz-adv-x="1318" d="M172 0v1532h244v-205h354q213 0 347 -125t134 -348t-134 -349t-347 -126h-354v-379h-244zM414 596h325q115 0 188.5 67.5t73.5 190.5t-73.5 189.5t-188.5 66.5h-325v-514z" />
<glyph unicode="&#xdf;" horiz-adv-x="1320" d="M162 0v1192q0 188 124.5 302t329.5 114q207 0 330 -94.5t123 -247.5q0 -70 -28.5 -125.5t-62.5 -86t-62.5 -71.5t-28.5 -84t34.5 -82t85 -74.5t100.5 -81t85 -119t35 -167.5q0 -184 -127 -287.5t-328 -103.5q-121 0 -213 36l45 185q76 -29 148 -29q106 0 173.5 58.5 t67.5 160.5q0 66 -34.5 121t-85 93t-100.5 76t-85 91t-35 119q0 63 29 113.5t62.5 76t62.5 62.5t29 78q0 88 -56.5 137t-158.5 49q-104 0 -167 -60.5t-63 -164.5v-1186h-229z" />
<glyph unicode="&#xe0;" horiz-adv-x="1122" d="M100 287q0 295 385 317l250 14v31q0 219 -186 219q-92 0 -140.5 -51t-48.5 -127l-231 8q0 147 115 259t303 112q203 0 311.5 -107.5t108.5 -308.5v-653h-232v94q-121 -115 -284 -114q-160 0 -255.5 80.5t-95.5 226.5zM199 1612h262l192 -391h-180zM332 291 q0 -119 157 -119q115 0 181.5 58.5t66.5 172.5v37l-219 -14q-186 -10 -186 -135z" />
<glyph unicode="&#xe1;" horiz-adv-x="1122" d="M100 287q0 295 385 317l250 14v31q0 219 -186 219q-92 0 -140.5 -51t-48.5 -127l-231 8q0 147 115 259t303 112q203 0 311.5 -107.5t108.5 -308.5v-653h-232v94q-121 -115 -284 -114q-160 0 -255.5 80.5t-95.5 226.5zM332 291q0 -119 157 -119q115 0 181.5 58.5 t66.5 172.5v37l-219 -14q-186 -10 -186 -135zM475 1221l195 391h260l-275 -391h-180z" />
<glyph unicode="&#xe2;" horiz-adv-x="1122" d="M100 287q0 295 385 317l250 14v31q0 219 -186 219q-92 0 -140.5 -51t-48.5 -127l-231 8q0 147 115 259t303 112q203 0 311.5 -107.5t108.5 -308.5v-653h-232v94q-121 -115 -284 -114q-160 0 -255.5 80.5t-95.5 226.5zM217 1223l242 354h221l244 -354h-195l-160 200 l-157 -200h-195zM332 291q0 -119 157 -119q115 0 181.5 58.5t66.5 172.5v37l-219 -14q-186 -10 -186 -135z" />
<glyph unicode="&#xe3;" horiz-adv-x="1122" d="M100 287q0 295 385 317l250 14v31q0 219 -186 219q-92 0 -140.5 -51t-48.5 -127l-231 8q0 147 115 259t303 112q203 0 311.5 -107.5t108.5 -308.5v-653h-232v94q-121 -115 -284 -114q-160 0 -255.5 80.5t-95.5 226.5zM215 1251q-8 115 48.5 197t152.5 82 q70 0 151.5 -59.5t124.5 -59.5q90 0 94 105h132q8 -113 -48.5 -196t-152.5 -83q-70 0 -152 59.5t-125 59.5q-92 0 -92 -105h-133zM332 291q0 -119 157 -119q115 0 181.5 58.5t66.5 172.5v37l-219 -14q-186 -10 -186 -135z" />
<glyph unicode="&#xe4;" horiz-adv-x="1122" d="M100 287q0 295 385 317l250 14v31q0 219 -186 219q-92 0 -140.5 -51t-48.5 -127l-231 8q0 147 115 259t303 112q203 0 311.5 -107.5t108.5 -308.5v-653h-232v94q-121 -115 -284 -114q-160 0 -255.5 80.5t-95.5 226.5zM262 1393q0 53 38 91t93 38q53 0 92 -38t39 -91 q0 -55 -37.5 -92t-93 -37t-93.5 36.5t-38 92.5zM332 291q0 -119 157 -119q115 0 181.5 58.5t66.5 172.5v37l-219 -14q-186 -10 -186 -135zM606 1393q0 53 39 91t92 38q55 0 93 -38t38 -91q0 -55 -37.5 -92t-93 -37t-93.5 36.5t-38 92.5z" />
<glyph unicode="&#xe5;" horiz-adv-x="1122" d="M100 287q0 295 385 317l250 14v31q0 219 -186 219q-92 0 -140.5 -51t-48.5 -127l-231 8q0 147 115 259t303 112q203 0 311.5 -107.5t108.5 -308.5v-653h-232v94q-121 -115 -284 -114q-160 0 -255.5 80.5t-95.5 226.5zM319 1425.5q0 100.5 72 166t178 65.5 q104 0 176 -65.5t72 -166t-71.5 -167t-176 -66.5t-177.5 66.5t-73 167zM332 291q0 -119 157 -119q115 0 181.5 58.5t66.5 172.5v37l-219 -14q-186 -10 -186 -135zM465 1425q0 -45 28.5 -71.5t75.5 -26.5q45 0 74 26.5t29 71.5q0 43 -29 71t-74 28q-47 0 -75.5 -28t-28.5 -71 z" />
<glyph unicode="&#xe6;" horiz-adv-x="1855" d="M100 291q0 291 385 313l250 14v31q0 223 -186 223q-92 0 -140.5 -52t-48.5 -130l-231 8q0 147 114.5 259t303.5 112q227 0 332 -151q145 152 385 151q225 0 358 -139t133 -379v-113h-772q8 -119 84 -189.5t197 -70.5q205 0 249 150l232 -13q-31 -143 -164 -239t-311 -96 q-266 0 -414 182q-141 -182 -395 -182q-164 0 -262.5 82.5t-98.5 228.5zM332 295q0 -117 157 -117q106 0 177 52.5t71 172.5v37l-219 -14q-186 -10 -186 -131zM985 618h539q-4 117 -70.5 185.5t-191.5 68.5q-117 0 -193 -66.5t-84 -187.5z" />
<glyph unicode="&#xe7;" horiz-adv-x="1196" d="M100 524q0 254 146.5 399.5t380.5 145.5q193 0 324.5 -106.5t158.5 -290.5l-225 -21q-12 102 -83 161.5t-175 59.5q-131 0 -212 -92t-81 -256q0 -162 82 -254t211 -92q106 0 175 55.5t85 153.5l225 -20q-29 -168 -147.5 -271.5t-294.5 -113.5l-17 -72q98 -12 159.5 -63.5 t61.5 -139.5q0 -109 -79.5 -166t-196.5 -57q-113 0 -195 39l39 139q53 -35 136 -35q51 0 87.5 19.5t36.5 62.5q0 86 -139 86q-29 0 -69 -8l57 197q-203 25 -327 167t-124 373z" />
<glyph unicode="&#xe8;" horiz-adv-x="1216" d="M100 524q0 252 145.5 398.5t379.5 146.5q225 0 358 -139t133 -379v-113h-772q8 -119 84 -189.5t197 -70.5q205 0 249 150l232 -13q-31 -143 -164 -239t-311 -96q-236 0 -383.5 146t-147.5 398zM250 1612h262l193 -391h-181zM346 618h539q-4 117 -70.5 185.5t-191.5 68.5 q-117 0 -193 -66.5t-84 -187.5z" />
<glyph unicode="&#xe9;" horiz-adv-x="1216" d="M100 524q0 252 145.5 398.5t379.5 146.5q225 0 358 -139t133 -379v-113h-772q8 -119 84 -189.5t197 -70.5q205 0 249 150l232 -13q-31 -143 -164 -239t-311 -96q-236 0 -383.5 146t-147.5 398zM346 618h539q-4 117 -70.5 185.5t-191.5 68.5q-117 0 -193 -66.5t-84 -187.5 zM526 1221l195 391h260l-274 -391h-181z" />
<glyph unicode="&#xea;" horiz-adv-x="1216" d="M100 524q0 252 145.5 398.5t379.5 146.5q225 0 358 -139t133 -379v-113h-772q8 -119 84 -189.5t197 -70.5q205 0 249 150l232 -13q-31 -143 -164 -239t-311 -96q-236 0 -383.5 146t-147.5 398zM268 1223l242 354h221l244 -354h-195l-159 200l-158 -200h-195zM346 618h539 q-4 117 -70.5 185.5t-191.5 68.5q-117 0 -193 -66.5t-84 -187.5z" />
<glyph unicode="&#xeb;" horiz-adv-x="1216" d="M100 524q0 252 145.5 398.5t379.5 146.5q225 0 358 -139t133 -379v-113h-772q8 -119 84 -189.5t197 -70.5q205 0 249 150l232 -13q-31 -143 -164 -239t-311 -96q-236 0 -383.5 146t-147.5 398zM313 1393q0 53 38 91t93 38q53 0 92 -38t39 -91q0 -55 -37.5 -92t-93 -37 t-93.5 36.5t-38 92.5zM346 618h539q-4 117 -70.5 185.5t-191.5 68.5q-117 0 -193 -66.5t-84 -187.5zM657 1393q0 53 39 91t92 38q55 0 93.5 -38t38.5 -91q0 -55 -38 -92t-93.5 -37t-93.5 36.5t-38 92.5z" />
<glyph unicode="&#xec;" d="M-84 1612h262l193 -391h-181zM166 0v1051h229v-1051h-229z" />
<glyph unicode="&#xed;" d="M166 0v1051h229v-1051h-229zM193 1221l194 391h260l-274 -391h-180z" />
<glyph unicode="&#xee;" d="M-66 1223l242 354h221l244 -354h-195l-159 200l-158 -200h-195zM166 0v1051h229v-1051h-229z" />
<glyph unicode="&#xef;" d="M-20 1393q0 53 38 91t93 38q53 0 92 -38t39 -91q0 -55 -38 -92t-93.5 -37t-93 36.5t-37.5 92.5zM166 0v1051h229v-1051h-229zM324 1393q0 53 39 91t92 38q55 0 93 -38t38 -91q0 -55 -38 -92t-93.5 -37t-93 36.5t-37.5 92.5z" />
<glyph unicode="&#xf0;" horiz-adv-x="1241" d="M100 485q0 229 146.5 368.5t359.5 139.5q131 0 250 -59q-55 213 -178 323l-170 -145l-105 105l148 124q-115 53 -285 60v190q254 0 445 -112l182 153l106 -100l-168 -143q297 -279 297 -852q0 -266 -143 -411.5t-377 -145.5q-215 0 -361.5 136t-146.5 369zM326 485.5 q0 -141.5 81.5 -224.5t208.5 -83t207 84t80 225.5t-77.5 223.5t-209.5 82q-129 0 -209.5 -83t-80.5 -224.5z" />
<glyph unicode="&#xf1;" horiz-adv-x="1255" d="M166 0v1051h217v-140q90 158 307 158q182 0 296 -117.5t114 -318.5v-633h-232v602q0 117 -62.5 185.5t-166.5 68.5q-109 0 -176.5 -72.5t-67.5 -183.5v-600h-229zM295 1251q-8 115 48.5 197t152.5 82q70 0 151.5 -59.5t124.5 -59.5q90 0 94 105h131q8 -113 -48 -196 t-152 -83q-70 0 -152 59.5t-125 59.5q-92 0 -92 -105h-133z" />
<glyph unicode="&#xf2;" horiz-adv-x="1298" d="M100 524.5q0 245.5 154.5 395t394.5 149.5q238 0 392.5 -149.5t154.5 -395t-154.5 -395t-392.5 -149.5q-240 0 -394.5 149.5t-154.5 395zM276 1612h263l192 -391h-180zM334 524q0 -160 88 -253t227 -93t227.5 93.5t88.5 252.5q0 162 -88.5 255t-227.5 93t-227 -93 t-88 -255z" />
<glyph unicode="&#xf3;" horiz-adv-x="1298" d="M100 524.5q0 245.5 154.5 395t394.5 149.5q238 0 392.5 -149.5t154.5 -395t-154.5 -395t-392.5 -149.5q-240 0 -394.5 149.5t-154.5 395zM334 524q0 -160 88 -253t227 -93t227.5 93.5t88.5 252.5q0 162 -88.5 255t-227.5 93t-227 -93t-88 -255zM553 1221l195 391h260 l-275 -391h-180z" />
<glyph unicode="&#xf4;" horiz-adv-x="1298" d="M100 524.5q0 245.5 154.5 395t394.5 149.5q238 0 392.5 -149.5t154.5 -395t-154.5 -395t-392.5 -149.5q-240 0 -394.5 149.5t-154.5 395zM295 1223l242 354h221l243 -354h-194l-160 200l-158 -200h-194zM334 524q0 -160 88 -253t227 -93t227.5 93.5t88.5 252.5 q0 162 -88.5 255t-227.5 93t-227 -93t-88 -255z" />
<glyph unicode="&#xf5;" horiz-adv-x="1298" d="M100 524.5q0 245.5 154.5 395t394.5 149.5q238 0 392.5 -149.5t154.5 -395t-154.5 -395t-392.5 -149.5q-240 0 -394.5 149.5t-154.5 395zM293 1251q-8 115 48.5 197t152.5 82q70 0 151.5 -59.5t124.5 -59.5q90 0 94 105h131q8 -113 -48 -196t-152 -83q-70 0 -152 59.5 t-125 59.5q-92 0 -92 -105h-133zM334 524q0 -160 88 -253t227 -93t227.5 93.5t88.5 252.5q0 162 -88.5 255t-227.5 93t-227 -93t-88 -255z" />
<glyph unicode="&#xf6;" horiz-adv-x="1298" d="M100 524.5q0 245.5 154.5 395t394.5 149.5q238 0 392.5 -149.5t154.5 -395t-154.5 -395t-392.5 -149.5q-240 0 -394.5 149.5t-154.5 395zM334 524q0 -160 88 -253t227 -93t227.5 93.5t88.5 252.5q0 162 -88.5 255t-227.5 93t-227 -93t-88 -255zM340 1393q0 53 38 91 t93 38q53 0 92 -38t39 -91q0 -55 -38 -92t-93 -37t-93 36.5t-38 92.5zM684 1393q0 53 39 91t92 38q55 0 93 -38t38 -91q0 -55 -38 -92t-93 -37t-93 36.5t-38 92.5z" />
<glyph unicode="&#xf7;" horiz-adv-x="1120" d="M66 651v217h989v-217h-989zM414 297q0 61 43 104t102 43q61 0 105.5 -43t44.5 -104q0 -59 -44 -103t-106 -44q-59 0 -102 44t-43 103zM414 1220.5q0 61.5 43 104.5t102 43q61 0 105.5 -43t44.5 -104.5t-44 -103.5t-106 -42q-59 0 -102 42t-43 103.5z" />
<glyph unicode="&#xf8;" horiz-adv-x="1298" d="M100 524q0 246 155 395.5t394 149.5q152 0 269 -61l79 104l127 -94l-77 -103q150 -150 149 -391q0 -246 -154.5 -395t-392.5 -149q-145 0 -264 59l-90 -119l-127 94l88 115q-156 152 -156 395zM334 524q0 -125 57 -215l402 533q-66 31 -144 30q-139 0 -227 -93t-88 -255z M512 207q63 -29 137 -29q139 0 227.5 93.5t88.5 252.5q0 127 -54 211z" />
<glyph unicode="&#xf9;" horiz-adv-x="1220" d="M156 403v648h229v-613q0 -115 55.5 -179t157.5 -64q104 0 165.5 74.5t61.5 181.5v600h230v-1051h-217v137q-33 -66 -109 -111.5t-188 -45.5q-176 0 -280.5 115.5t-104.5 307.5zM244 1612h262l192 -391h-180z" />
<glyph unicode="&#xfa;" horiz-adv-x="1220" d="M156 403v648h229v-613q0 -115 55.5 -179t157.5 -64q104 0 165.5 74.5t61.5 181.5v600h230v-1051h-217v137q-33 -66 -109 -111.5t-188 -45.5q-176 0 -280.5 115.5t-104.5 307.5zM520 1221l195 391h260l-275 -391h-180z" />
<glyph unicode="&#xfb;" horiz-adv-x="1220" d="M156 403v648h229v-613q0 -115 55.5 -179t157.5 -64q104 0 165.5 74.5t61.5 181.5v600h230v-1051h-217v137q-33 -66 -109 -111.5t-188 -45.5q-176 0 -280.5 115.5t-104.5 307.5zM262 1223l242 354h221l244 -354h-195l-160 200l-157 -200h-195z" />
<glyph unicode="&#xfc;" horiz-adv-x="1220" d="M156 403v648h229v-613q0 -115 55.5 -179t157.5 -64q104 0 165.5 74.5t61.5 181.5v600h230v-1051h-217v137q-33 -66 -109 -111.5t-188 -45.5q-176 0 -280.5 115.5t-104.5 307.5zM307 1393q0 53 38 91t93 38q53 0 92 -38t39 -91q0 -55 -37.5 -92t-93 -37t-93.5 36.5 t-38 92.5zM651 1393q0 53 39 91t92 38q55 0 93 -38t38 -91q0 -55 -37.5 -92t-93 -37t-93.5 36.5t-38 92.5z" />
<glyph unicode="&#xfd;" horiz-adv-x="1124" d="M25 1051h256l282 -719l283 719h256l-668 -1573h-252l258 596zM469 1221l195 391h260l-275 -391h-180z" />
<glyph unicode="&#xfe;" horiz-adv-x="1335" d="M166 -522v2113h229v-669q45 66 132 106.5t202 40.5q223 0 364.5 -148.5t141.5 -396.5t-141.5 -396t-364.5 -148q-113 0 -201 39.5t-133 105.5v-647h-229zM395 496q0 -152 82 -236t215 -84q137 0 223 92t86 256t-86 255t-223 91q-133 0 -215 -84t-82 -235v-55z" />
<glyph unicode="&#xff;" horiz-adv-x="1124" d="M25 1051h256l282 -719l283 719h256l-668 -1573h-252l258 596zM256 1393q0 53 38 91t93 38q53 0 92 -38t39 -91q0 -55 -38 -92t-93 -37t-93 36.5t-38 92.5zM600 1393q0 53 39 91t92 38q55 0 93 -38t38 -91q0 -55 -38 -92t-93 -37t-93 36.5t-38 92.5z" />
<glyph unicode="&#x152;" horiz-adv-x="2473" d="M109 766q0 358 220 572t562 214q322 0 534 -190v170h963v-215h-719v-422h629v-211h-629v-467h719v-217h-963v170q-213 -190 -534 -190q-342 0 -562 214t-220 572zM356 766q0 -262 149.5 -415.5t385.5 -153.5q233 0 382.5 153.5t149.5 415.5q0 264 -149.5 416.5 t-382.5 152.5q-236 0 -385.5 -152.5t-149.5 -416.5z" />
<glyph unicode="&#x153;" horiz-adv-x="2080" d="M100 524.5q0 245.5 155 395t394 149.5q268 0 426 -184q143 184 412 184q225 0 358 -139t133 -379v-113h-772q8 -119 84 -189.5t197 -70.5q205 0 250 150l231 -13q-31 -143 -164 -239t-311 -96q-272 0 -418 186q-154 -186 -426 -186q-240 0 -394.5 149.5t-154.5 395z M334 524q0 -160 88 -253t227 -93q131 0 218 83t96 228v35v35q-8 145 -95.5 229t-218.5 84q-139 0 -227 -93t-88 -255zM1208 618h539q-4 117 -70.5 185.5t-191.5 68.5q-117 0 -192.5 -66.5t-84.5 -187.5z" />
<glyph unicode="&#x178;" horiz-adv-x="1464" d="M31 1532h282l420 -674l418 674h283l-580 -916v-616h-242v616zM432 1788q0 53 38 91t93 38q53 0 92 -38t39 -91q0 -55 -39 -93t-92 -38q-55 0 -93 38t-38 93zM776 1788q0 53 39 91t92 38q55 0 93 -38t38 -91q0 -55 -37.5 -93t-93.5 -38q-53 0 -92 38t-39 93z" />
<glyph unicode="&#x2c6;" horiz-adv-x="757" d="M27 1223l241 354h221l244 -354h-194l-160 200l-158 -200h-194z" />
<glyph unicode="&#x2dc;" horiz-adv-x="759" d="M37 1251q-8 115 48.5 197t152.5 82q70 0 151.5 -59.5t124.5 -59.5q90 0 94 105h131q8 -113 -48 -196t-152 -83q-70 0 -152 59.5t-125 59.5q-92 0 -92 -105h-133z" />
<glyph unicode="&#x2000;" horiz-adv-x="1021" />
<glyph unicode="&#x2001;" horiz-adv-x="2042" />
<glyph unicode="&#x2002;" horiz-adv-x="1021" />
<glyph unicode="&#x2003;" horiz-adv-x="2042" />
<glyph unicode="&#x2004;" horiz-adv-x="680" />
<glyph unicode="&#x2005;" horiz-adv-x="510" />
<glyph unicode="&#x2006;" horiz-adv-x="340" />
<glyph unicode="&#x2007;" horiz-adv-x="340" />
<glyph unicode="&#x2008;" horiz-adv-x="255" />
<glyph unicode="&#x2009;" horiz-adv-x="408" />
<glyph unicode="&#x200a;" horiz-adv-x="113" />
<glyph unicode="&#x2010;" horiz-adv-x="827" d="M92 428v215h643v-215h-643z" />
<glyph unicode="&#x2011;" horiz-adv-x="827" d="M92 428v215h643v-215h-643z" />
<glyph unicode="&#x2012;" horiz-adv-x="827" d="M92 428v215h643v-215h-643z" />
<glyph unicode="&#x2013;" horiz-adv-x="1155" d="M92 428v215h971v-215h-971z" />
<glyph unicode="&#x2014;" horiz-adv-x="1630" d="M92 428v215h1446v-215h-1446z" />
<glyph unicode="&#x2018;" horiz-adv-x="411" d="M80 1135q0 281 266 424v-99q-104 -75 -127 -198q59 -4 99 -45t40 -99q0 -61 -39.5 -104t-101.5 -43q-66 0 -101.5 45t-35.5 119z" />
<glyph unicode="&#x2019;" horiz-adv-x="411" d="M53 1411q0 61 40.5 104.5t101.5 43.5q66 0 101.5 -45.5t35.5 -118.5q0 -281 -266 -424v98q104 76 127 199q-59 4 -99.5 45t-40.5 98z" />
<glyph unicode="&#x201a;" horiz-adv-x="411" d="M53 125q0 61 40.5 104t101.5 43q66 0 101.5 -45t35.5 -118q0 -281 -266 -424v98q104 76 127 199q-59 4 -99.5 45t-40.5 98z" />
<glyph unicode="&#x201c;" horiz-adv-x="790" d="M72 1135q0 281 266 424v-99q-104 -75 -127 -198q59 -4 99 -45t40 -99q0 -61 -40 -104t-101 -43q-66 0 -101.5 45t-35.5 119zM453 1135q0 281 266 424v-99q-104 -75 -127 -198q59 -4 99 -45t40 -99q0 -61 -40 -104t-101 -43q-66 0 -101.5 45t-35.5 119z" />
<glyph unicode="&#x201d;" horiz-adv-x="790" d="M45 1411q0 61 40 104.5t101 43.5q66 0 102 -45.5t36 -118.5q0 -281 -267 -424v98q104 76 127 199q-59 4 -99 45t-40 98zM426 1411q0 61 40 104.5t101 43.5q66 0 102 -45.5t36 -118.5q0 -281 -267 -424v98q104 76 127 199q-59 4 -99 45t-40 98z" />
<glyph unicode="&#x201e;" horiz-adv-x="790" d="M53 125q0 61 40.5 104t101.5 43q66 0 101.5 -45t35.5 -118q0 -281 -266 -424v98q104 76 127 199q-59 4 -99.5 45t-40.5 98zM432 125q0 61 40 104t101 43q66 0 102 -45t36 -118q0 -281 -267 -424v98q104 76 127 199q-59 4 -99 45t-40 98z" />
<glyph unicode="&#x2022;" horiz-adv-x="714" d="M104 522q0 104 74 178t180 74q102 0 176 -73.5t74 -178.5q0 -106 -73.5 -180t-176.5 -74q-106 0 -180 74t-74 180z" />
<glyph unicode="&#x2026;" horiz-adv-x="1417" d="M86 125q0 63 43 106t102 43q61 0 105.5 -43t44.5 -106q0 -59 -44 -102t-106 -43q-59 0 -102 43t-43 102zM549 125q0 63 43 106t102 43q61 0 105.5 -43t44.5 -106q0 -59 -44 -102t-106 -43q-59 0 -102 43t-43 102zM1014 125q0 63 43 106t102 43q61 0 105.5 -43t44.5 -106 q0 -59 -44 -102t-106 -43q-59 0 -102 43t-43 102z" />
<glyph unicode="&#x202f;" horiz-adv-x="408" />
<glyph unicode="&#x2039;" horiz-adv-x="655" d="M31 524l422 459l165 -145l-309 -314l309 -313l-165 -145z" />
<glyph unicode="&#x203a;" horiz-adv-x="655" d="M39 211l309 313l-309 314l164 145l424 -459l-424 -458z" />
<glyph unicode="&#x205f;" horiz-adv-x="510" />
<glyph unicode="&#x20ac;" horiz-adv-x="1445" d="M18 518l54 144h155q-4 66 -4 104q0 33 4 98h-209l54 144h178q61 258 243.5 401t424.5 143q246 0 419 -131l-75 -200q-137 115 -334 114q-154 0 -264.5 -85t-159.5 -242h670l-54 -144h-645q-4 -61 -4 -98q0 -55 6 -104h559l-53 -144h-477q49 -156 160.5 -238.5 t261.5 -82.5q193 -1 332 118l102 -202q-188 -133 -449 -133q-238 0 -418 142t-243 396h-234z" />
<glyph unicode="&#x2122;" horiz-adv-x="1816" d="M55 1368v164h680v-164h-256v-571h-170v571h-254zM844 797v735h143l279 -481l278 481h144v-735h-170v370l-213 -364h-78l-213 364v-370h-170z" />
<glyph unicode="&#x25fc;" horiz-adv-x="1054" d="M0 0v1055h1055v-1055h-1055z" />
<glyph unicode="&#xfb02;" horiz-adv-x="1296" d="M18 852v199h199v145q0 188 108.5 297t292.5 109q49 0 91 -7v-198q-37 4 -66 4q-88 0 -142.5 -53.5t-54.5 -145.5v-151h259v-199h-259v-852h-229v852h-199zM901 0v1591h229v-1591h-229z" />
</font>
</defs>
</svg>
